<svg xmlns="http://www.w3.org/2000/svg" width="340" height="183" viewBox="0 0 340 183">
<g>
<path d="M 0.00 0.00 L 340.00 0.00 L 340.00 183.00 L 0.00 183.00 ZM 218.55 28.00 L 205.00 28.00 L 205.00 74.00 L 218.03 74.00 C232.42,74.00 236.26,73.03 239.83,68.49 C241.39,66.50 242.00,64.34 242.00,60.79 C242.00,56.61 241.53,55.37 238.95,52.79 L 235.89 49.74 L 238.03 47.47 C240.93,44.38 241.66,38.18 239.59,34.18 C236.87,28.91 233.77,28.00 218.55,28.00 ZM 53.00 25.00 L 53.00 74.00 L 63.00 74.00 L 63.00 63.95 C63.00,56.92 63.46,53.02 64.52,50.96 C67.11,45.95 74.62,45.68 76.83,50.52 C77.49,51.96 78.00,57.69 78.00,63.55 L 78.00 74.00 L 88.00 74.00 L 88.00 61.97 C88.00,48.72 86.94,44.67 82.59,41.25 C78.11,37.72 72.20,37.48 64.75,40.50 C63.17,41.15 63.00,40.43 63.00,33.11 L 63.00 25.00 ZM 162.00 25.00 L 162.00 74.00 L 172.00 74.00 L 172.00 61.00 L 174.97 61.00 C177.59,61.00 178.41,61.79 181.69,67.50 L 185.43 74.00 L 191.25 74.00 C191.72,74.00 192.15,74.00 192.56,74.01 C194.55,74.03 195.73,74.04 196.10,73.50 C196.65,72.69 195.41,70.67 192.33,65.67 C191.91,64.98 191.45,64.24 190.96,63.44 C187.28,57.43 187.27,57.35 189.08,54.87 C190.08,53.49 192.00,49.34 193.34,45.64 L 195.79 38.91 L 190.32 39.20 L 184.86 39.50 L 182.68 44.98 C181.09,48.98 179.79,50.70 177.87,51.38 C172.43,53.29 172.00,52.31 172.00,38.03 L 172.00 25.00 ZM 118.00 39.00 L 118.00 74.00 L 128.00 74.00 L 128.00 62.95 C128.00,52.56 128.14,51.76 130.45,49.45 C133.63,46.28 138.31,46.17 140.44,49.22 C141.63,50.92 142.00,54.13 142.00,62.72 L 142.00 74.00 L 153.27 74.00 L 152.80 61.14 C152.29,47.01 150.84,42.85 145.38,39.94 C141.73,37.99 132.71,38.31 129.36,40.50 C126.94,42.09 126.63,42.10 125.81,40.62 C125.24,39.61 123.59,39.00 121.45,39.00 ZM 22.00 38.09 L 22.00 74.00 L 32.00 74.00 L 32.00 38.09 L 39.25 37.79 L 46.50 37.50 L 47.11 28.00 L 6.89 28.00 L 7.20 32.75 L 7.50 37.50 L 14.75 37.79 ZM 268.01 70.25 L 268.00 74.00 L 298.00 74.00 L 298.00 66.00 L 290.00 66.00 C285.60,66.00 282.00,65.60 282.00,65.12 C282.00,64.63 285.60,60.16 290.00,55.18 C296.81,47.48 298.00,45.60 298.00,42.56 L 298.00 39.00 L 267.89 39.00 L 268.50 47.50 L 283.93 48.50 L 275.98 57.50 C269.08,65.31 268.03,66.99 268.01,70.25 ZM 97.00 39.00 L 97.00 74.00 L 108.00 74.00 L 108.00 39.00 ZM 250.00 39.00 L 250.00 74.00 L 260.00 74.00 L 260.00 39.00 ZM 247.59 33.92 C249.72,36.46 250.91,37.00 254.34,36.98 C260.32,36.95 263.45,34.25 263.45,29.15 C263.45,21.98 256.69,18.04 250.15,21.42 C244.46,24.36 243.50,29.06 247.59,33.92 ZM 95.45 34.55 C98.62,37.71 104.60,37.89 108.37,34.93 C110.39,33.34 111.00,31.97 111.00,29.04 C111.00,23.92 108.47,21.01 103.44,20.33 C94.89,19.19 89.57,28.66 95.45,34.55 ZM 19.68 109.34 C20.05,109.72 41.27,109.90 66.84,109.76 C102.96,109.56 113.43,109.22 113.75,108.25 C114.08,107.26 104.21,107.00 66.58,107.00 C40.41,107.00 19.00,107.38 19.00,107.83 C19.00,108.29 19.30,108.97 19.68,109.34 ZM 278.73 117.25 C278.01,119.81 278.17,120.00 280.98,120.00 C283.94,120.00 284.98,118.72 283.00,117.50 C282.45,117.16 282.00,115.12 282.00,112.96 C282.00,108.51 283.62,107.61 290.60,108.18 C294.34,108.49 294.51,108.65 294.82,112.38 C294.99,114.52 294.66,116.74 294.07,117.33 C292.19,119.21 292.91,120.00 296.50,120.00 C298.42,120.00 300.00,119.55 300.00,119.00 C300.00,118.45 299.55,118.00 299.00,118.00 C297.52,118.00 297.70,98.70 299.20,97.20 C300.13,96.27 299.58,96.00 296.70,96.00 C294.67,96.00 293.00,96.45 293.00,97.00 C293.00,97.55 293.45,98.00 294.00,98.00 C294.55,98.00 295.00,99.82 295.00,102.05 L 295.00 106.10 L 288.75 105.80 C282.71,105.51 282.49,105.40 282.18,102.66 C281.98,100.98 282.56,99.04 283.58,97.91 C285.26,96.06 285.18,96.00 281.03,96.00 C277.48,96.00 276.95,96.24 277.92,97.40 C279.27,99.03 279.85,113.23 278.73,117.25 ZM 122.00 119.00 C122.00,119.55 123.57,120.00 125.50,120.00 C127.43,120.00 129.00,119.55 129.00,119.00 C129.00,118.45 128.55,118.00 128.00,118.00 C127.45,118.00 127.00,115.75 127.00,113.00 L 127.00 108.00 L 139.00 108.00 L 139.00 113.00 C139.00,115.75 138.55,118.00 138.00,118.00 C137.45,118.00 137.00,118.45 137.00,119.00 C137.00,119.55 138.57,120.00 140.50,120.00 C142.43,120.00 144.00,119.55 144.00,119.00 C144.00,118.45 143.55,118.00 143.00,118.00 C142.40,118.00 142.00,114.00 142.00,108.00 C142.00,102.00 142.40,98.00 143.00,98.00 C143.55,98.00 144.00,97.55 144.00,97.00 C144.00,96.45 142.34,96.00 140.30,96.00 C137.42,96.00 136.87,96.27 137.80,97.20 C138.46,97.86 139.00,100.11 139.00,102.20 L 139.00 106.00 L 127.00 106.00 L 127.00 102.00 C127.00,99.80 127.45,98.00 128.00,98.00 C128.55,98.00 129.00,97.55 129.00,97.00 C129.00,96.45 127.43,96.00 125.50,96.00 C123.57,96.00 122.00,96.45 122.00,97.00 C122.00,97.55 122.45,98.00 123.00,98.00 C123.60,98.00 124.00,102.00 124.00,108.00 C124.00,114.00 123.60,118.00 123.00,118.00 C122.45,118.00 122.00,118.45 122.00,119.00 ZM 181.00 119.00 C181.00,119.55 182.57,120.00 184.50,120.00 C186.43,120.00 188.00,119.55 188.00,119.00 C188.00,118.45 187.55,118.00 187.00,118.00 C186.45,118.00 186.00,115.73 186.00,112.95 L 186.00 107.90 L 192.25 108.20 L 198.50 108.50 L 198.46 112.00 C198.44,113.93 198.08,116.51 197.65,117.75 C196.95,119.76 197.19,120.00 199.93,120.00 C202.94,120.00 203.99,118.73 202.00,117.50 C200.32,116.46 200.77,100.78 202.56,98.22 C204.09,96.03 204.05,96.00 200.03,96.00 L 195.95 96.00 L 197.55 98.44 C198.43,99.79 199.01,101.92 198.83,103.19 C198.53,105.28 197.91,105.53 192.25,105.80 L 186.00 106.10 L 186.00 102.05 C186.00,99.82 186.45,98.00 187.00,98.00 C187.55,98.00 188.00,97.55 188.00,97.00 C188.00,96.45 186.34,96.00 184.30,96.00 C181.42,96.00 180.87,96.27 181.80,97.20 C183.30,98.70 183.48,118.00 182.00,118.00 C181.45,118.00 181.00,118.45 181.00,119.00 ZM 243.25 120.21 C247.79,120.37 251.78,120.39 252.13,120.26 C253.15,119.89 253.81,115.00 252.92,114.45 C252.47,114.17 251.60,114.88 250.99,116.02 C250.06,117.76 249.09,118.05 245.19,117.80 L 240.50 117.50 L 240.20 113.38 C239.99,110.48 240.33,109.09 241.35,108.70 C243.19,107.99 247.00,108.95 247.00,110.12 C247.00,110.60 247.45,111.00 248.00,111.00 C248.55,111.00 249.00,109.20 249.00,107.00 C249.00,102.76 247.60,101.59 246.69,105.07 C246.27,106.67 245.49,107.07 243.32,106.82 C240.78,106.53 240.47,106.08 240.19,102.25 L 239.89 98.00 L 244.88 98.00 C247.63,98.00 250.16,98.45 250.50,99.00 C251.59,100.76 252.83,100.07 252.29,98.00 C251.82,96.20 250.93,96.00 243.38,96.00 C238.46,96.00 235.00,96.41 235.00,97.00 C235.00,97.55 235.45,98.00 236.00,98.00 C236.60,98.00 237.00,101.81 237.00,107.44 C237.00,112.66 236.55,117.16 236.00,117.50 C233.42,119.10 235.68,119.94 243.25,120.21 ZM 228.78 64.44 C226.56,66.00 216.98,66.65 215.67,65.33 C215.30,64.97 215.00,62.49 215.00,59.83 L 215.00 55.00 L 221.80 55.00 C225.76,55.00 229.10,55.50 229.80,56.20 C231.79,58.19 231.23,62.73 228.78,64.44 ZM 228.44 45.05 C226.66,46.52 216.89,47.59 215.75,46.43 C215.34,46.01 215.00,43.49 215.00,40.83 L 215.00 36.00 L 220.57 36.00 C223.63,36.00 227.00,36.47 228.07,37.04 C230.44,38.30 230.67,43.20 228.44,45.05 ZM 164.50 119.60 C166.15,120.33 168.03,120.94 168.68,120.96 C171.54,121.06 175.12,118.82 176.21,116.27 C176.86,114.75 178.00,112.76 178.76,111.85 C180.65,109.57 178.83,108.62 174.21,109.49 C171.20,110.05 170.86,110.34 172.28,111.14 C174.61,112.44 174.47,116.68 172.07,117.96 C169.03,119.59 167.27,119.21 163.98,116.25 C161.58,114.08 160.81,112.40 160.34,108.31 C159.77,103.44 159.93,102.91 162.91,99.93 C166.51,96.34 166.44,95.39 162.72,97.08 C158.83,98.86 156.61,103.83 157.23,109.39 C157.82,114.58 159.97,117.60 164.50,119.60 ZM 262.33 119.54 C264.07,120.30 266.26,120.94 267.18,120.96 C269.56,121.02 274.33,119.09 275.16,117.74 C276.56,115.47 274.80,115.01 272.30,116.98 C269.24,119.38 267.83,119.48 264.09,117.55 C258.70,114.76 256.78,103.77 260.96,99.60 C263.60,96.95 270.62,96.75 272.46,99.27 C274.20,101.66 275.20,101.43 274.82,98.75 C274.54,96.75 273.85,96.47 268.65,96.20 C264.61,95.99 262.07,96.38 260.43,97.46 C252.68,102.53 253.83,115.85 262.33,119.54 ZM 220.80 118.80 C219.87,119.73 220.42,120.00 223.30,120.00 C226.84,120.00 228.12,118.81 226.00,117.50 C225.45,117.16 225.00,112.66 225.00,107.44 C225.00,98.17 225.04,98.00 227.38,98.00 C228.70,98.00 230.48,99.00 231.38,100.25 L 233.00 102.50 L 232.75 99.50 L 232.50 96.50 L 223.83 96.21 C215.72,95.94 215.11,96.06 214.48,98.06 C214.11,99.24 214.25,100.65 214.80,101.20 C215.47,101.87 216.02,101.50 216.47,100.10 C216.90,98.72 217.97,98.00 219.57,98.00 C221.98,98.00 222.00,98.09 222.00,107.80 C222.00,114.09 221.57,118.03 220.80,118.80 ZM 147.00 119.00 C147.00,119.55 148.57,120.00 150.50,120.00 C152.43,120.00 154.00,119.55 154.00,119.00 C154.00,118.45 153.55,118.00 153.00,118.00 C152.40,118.00 152.00,114.00 152.00,108.00 C152.00,102.00 152.40,98.00 153.00,98.00 C153.55,98.00 154.00,97.55 154.00,97.00 C154.00,96.45 152.34,96.00 150.30,96.00 C147.42,96.00 146.87,96.27 147.80,97.20 C149.30,98.70 149.48,118.00 148.00,118.00 C147.45,118.00 147.00,118.45 147.00,119.00 ZM 175.65 100.53 C176.55,102.87 178.04,100.86 177.35,98.23 C176.86,96.37 176.09,96.01 172.63,96.04 L 168.50 96.08 L 171.77 97.50 C173.56,98.28 175.31,99.64 175.65,100.53 Z" fill="rgb(1,0,0)"/>
<path d="M 247.59 33.92 C243.50,29.06 244.46,24.36 250.15,21.42 C256.69,18.04 263.45,21.98 263.45,29.15 C263.45,34.25 260.32,36.95 254.34,36.98 C250.91,37.00 249.72,36.46 247.59,33.92 ZM 95.45 34.55 C89.57,28.66 94.89,19.19 103.44,20.33 C108.47,21.01 111.00,23.92 111.00,29.04 C111.00,31.97 110.39,33.34 108.37,34.93 C104.60,37.89 98.62,37.71 95.45,34.55 ZM 122.00 119.00 C122.00,118.45 122.45,118.00 123.00,118.00 C123.60,118.00 124.00,114.00 124.00,108.00 C124.00,102.00 123.60,98.00 123.00,98.00 C122.45,98.00 122.00,97.55 122.00,97.00 C122.00,96.45 123.57,96.00 125.50,96.00 C127.43,96.00 129.00,96.45 129.00,97.00 C129.00,97.55 128.55,98.00 128.00,98.00 C127.45,98.00 127.00,99.80 127.00,102.00 L 127.00 106.00 L 139.00 106.00 L 139.00 102.20 C139.00,100.11 138.46,97.86 137.80,97.20 C136.87,96.27 137.42,96.00 140.30,96.00 C142.34,96.00 144.00,96.45 144.00,97.00 C144.00,97.55 143.55,98.00 143.00,98.00 C142.40,98.00 142.00,102.00 142.00,108.00 C142.00,114.00 142.40,118.00 143.00,118.00 C143.55,118.00 144.00,118.45 144.00,119.00 C144.00,119.55 142.43,120.00 140.50,120.00 C138.57,120.00 137.00,119.55 137.00,119.00 C137.00,118.45 137.45,118.00 138.00,118.00 C138.55,118.00 139.00,115.75 139.00,113.00 L 139.00 108.00 L 127.00 108.00 L 127.00 113.00 C127.00,115.75 127.45,118.00 128.00,118.00 C128.55,118.00 129.00,118.45 129.00,119.00 C129.00,119.55 127.43,120.00 125.50,120.00 C123.57,120.00 122.00,119.55 122.00,119.00 ZM 181.00 119.00 C181.00,118.45 181.45,118.00 182.00,118.00 C183.48,118.00 183.30,98.70 181.80,97.20 C180.87,96.27 181.42,96.00 184.30,96.00 C186.34,96.00 188.00,96.45 188.00,97.00 C188.00,97.55 187.55,98.00 187.00,98.00 C186.45,98.00 186.00,99.82 186.00,102.05 L 186.00 106.10 L 192.25 105.80 C197.91,105.53 198.53,105.28 198.83,103.19 C199.01,101.92 198.43,99.79 197.55,98.44 L 195.95 96.00 L 200.03 96.00 C204.05,96.00 204.09,96.03 202.56,98.22 C200.77,100.78 200.32,116.46 202.00,117.50 C203.99,118.73 202.94,120.00 199.93,120.00 C197.19,120.00 196.95,119.76 197.65,117.75 C198.08,116.51 198.44,113.93 198.46,112.00 L 198.50 108.50 L 192.25 108.20 L 186.00 107.90 L 186.00 112.95 C186.00,115.73 186.45,118.00 187.00,118.00 C187.55,118.00 188.00,118.45 188.00,119.00 C188.00,119.55 186.43,120.00 184.50,120.00 C182.57,120.00 181.00,119.55 181.00,119.00 ZM 252.00 35.29 C258.65,37.73 264.79,30.26 260.64,24.79 C257.43,20.57 250.34,20.63 248.06,24.89 C245.75,29.20 247.42,33.61 252.00,35.29 ZM 99.10 34.69 C99.28,34.76 99.46,34.82 99.63,34.88 C101.75,35.63 102.65,35.94 103.45,35.78 C104.11,35.65 104.70,35.20 105.84,34.40 C111.02,30.77 110.58,25.39 104.86,22.43 C100.45,20.15 97.65,21.23 95.47,26.06 C93.25,30.98 94.07,32.93 99.10,34.69 ZM 164.50 119.60 C159.97,117.60 157.82,114.58 157.23,109.39 C156.61,103.83 158.83,98.86 162.72,97.08 C166.44,95.39 166.51,96.34 162.91,99.93 C159.93,102.91 159.77,103.44 160.34,108.31 C160.81,112.40 161.58,114.08 163.98,116.25 C167.27,119.21 169.03,119.59 172.07,117.96 C174.47,116.68 174.61,112.44 172.28,111.14 C170.86,110.34 171.20,110.05 174.21,109.49 C178.83,108.62 180.65,109.57 178.76,111.85 C178.00,112.76 176.86,114.75 176.21,116.27 C175.12,118.82 171.54,121.06 168.68,120.96 C168.03,120.94 166.15,120.33 164.50,119.60 ZM 147.00 119.00 C147.00,118.45 147.45,118.00 148.00,118.00 C149.48,118.00 149.30,98.70 147.80,97.20 C146.87,96.27 147.42,96.00 150.30,96.00 C152.34,96.00 154.00,96.45 154.00,97.00 C154.00,97.55 153.55,98.00 153.00,98.00 C152.40,98.00 152.00,102.00 152.00,108.00 C152.00,114.00 152.40,118.00 153.00,118.00 C153.55,118.00 154.00,118.45 154.00,119.00 C154.00,119.55 152.43,120.00 150.50,120.00 C148.57,120.00 147.00,119.55 147.00,119.00 ZM 175.65 100.53 C175.31,99.64 173.56,98.28 171.77,97.50 L 168.50 96.08 L 172.63 96.04 C176.09,96.01 176.86,96.37 177.35,98.23 C178.04,100.86 176.55,102.87 175.65,100.53 Z" fill="rgb(203,125,84)"/>
<path d="M 252.00 35.29 C247.42,33.61 245.75,29.20 248.06,24.89 C250.34,20.63 257.43,20.57 260.64,24.79 C264.79,30.26 258.65,37.73 252.00,35.29 ZM 99.10 34.69 C94.07,32.93 93.25,30.98 95.47,26.06 C97.65,21.23 100.45,20.15 104.86,22.43 C110.58,25.39 111.02,30.77 105.84,34.40 C104.70,35.20 104.11,35.65 103.45,35.78 C102.65,35.94 101.75,35.63 99.63,34.88 C99.46,34.82 99.28,34.76 99.10,34.69 Z" fill="rgb(247,117,38)"/>
<path d="M 243.25 120.21 C235.68,119.94 233.42,119.10 236.00,117.50 C236.55,117.16 237.00,112.66 237.00,107.44 C237.00,101.81 236.60,98.00 236.00,98.00 C235.45,98.00 235.00,97.55 235.00,97.00 C235.00,96.41 238.46,96.00 243.38,96.00 C250.93,96.00 251.82,96.20 252.29,98.00 C252.83,100.07 251.59,100.76 250.50,99.00 C250.16,98.45 247.63,98.00 244.88,98.00 L 239.89 98.00 L 240.19 102.25 C240.47,106.08 240.78,106.53 243.32,106.82 C245.49,107.07 246.27,106.67 246.69,105.07 C247.60,101.59 249.00,102.76 249.00,107.00 C249.00,109.20 248.55,111.00 248.00,111.00 C247.45,111.00 247.00,110.60 247.00,110.12 C247.00,108.95 243.19,107.99 241.35,108.70 C240.33,109.09 239.99,110.48 240.20,113.38 L 240.50 117.50 L 245.19 117.80 C249.09,118.05 250.06,117.76 250.99,116.02 C251.60,114.88 252.47,114.17 252.92,114.45 C253.81,115.00 253.15,119.89 252.13,120.26 C251.78,120.39 247.79,120.37 243.25,120.21 ZM 262.33 119.54 C253.83,115.85 252.68,102.53 260.43,97.46 C262.07,96.38 264.61,95.99 268.65,96.20 C273.85,96.47 274.54,96.75 274.82,98.75 C275.20,101.43 274.20,101.66 272.46,99.27 C270.62,96.75 263.60,96.95 260.96,99.60 C256.78,103.77 258.70,114.76 264.09,117.55 C267.83,119.48 269.24,119.38 272.30,116.98 C274.80,115.01 276.56,115.47 275.16,117.74 C274.33,119.09 269.56,121.02 267.18,120.96 C266.26,120.94 264.07,120.30 262.33,119.54 ZM 220.80 118.80 C221.57,118.03 222.00,114.09 222.00,107.80 C222.00,98.09 221.98,98.00 219.57,98.00 C217.97,98.00 216.90,98.72 216.47,100.10 C216.02,101.50 215.47,101.87 214.80,101.20 C214.25,100.65 214.11,99.24 214.48,98.06 C215.11,96.06 215.72,95.94 223.83,96.21 L 232.50 96.50 L 232.75 99.50 L 233.00 102.50 L 231.38 100.25 C230.48,99.00 228.70,98.00 227.38,98.00 C225.04,98.00 225.00,98.17 225.00,107.44 C225.00,112.66 225.45,117.16 226.00,117.50 C228.12,118.81 226.84,120.00 223.30,120.00 C220.42,120.00 219.87,119.73 220.80,118.80 ZM 278.73 117.25 C279.85,113.23 279.27,99.03 277.92,97.40 C276.95,96.24 277.48,96.00 281.03,96.00 C285.18,96.00 285.26,96.06 283.58,97.91 C282.56,99.04 281.98,100.98 282.18,102.66 C282.49,105.40 282.71,105.51 288.75,105.80 L 295.00 106.10 L 295.00 102.05 C295.00,99.82 294.55,98.00 294.00,98.00 C293.45,98.00 293.00,97.55 293.00,97.00 C293.00,96.45 294.67,96.00 296.70,96.00 C299.58,96.00 300.13,96.27 299.20,97.20 C297.70,98.70 297.52,118.00 299.00,118.00 C299.55,118.00 300.00,118.45 300.00,119.00 C300.00,119.55 298.42,120.00 296.50,120.00 C292.91,120.00 292.19,119.21 294.07,117.33 C294.66,116.74 294.99,114.52 294.82,112.38 C294.51,108.65 294.34,108.49 290.60,108.18 C283.62,107.61 282.00,108.51 282.00,112.96 C282.00,115.12 282.45,117.16 283.00,117.50 C284.98,118.72 283.94,120.00 280.98,120.00 C278.17,120.00 278.01,119.81 278.73,117.25 ZM 19.68 109.34 C19.30,108.97 19.00,108.29 19.00,107.83 C19.00,107.38 40.41,107.00 66.58,107.00 C104.21,107.00 114.08,107.26 113.75,108.25 C113.43,109.22 102.96,109.56 66.84,109.76 C41.27,109.90 20.05,109.72 19.68,109.34 ZM 22.00 56.04 L 22.00 38.09 L 14.75 37.79 L 7.50 37.50 L 7.20 32.75 L 6.89 28.00 L 27.00 28.00 L 47.11 28.00 L 46.80 32.75 L 46.50 37.50 L 39.25 37.79 L 32.00 38.09 L 32.00 56.04 L 32.00 74.00 L 27.00 74.00 L 22.00 74.00 L 22.00 56.04 ZM 53.00 49.50 L 53.00 25.00 L 58.00 25.00 L 63.00 25.00 L 63.00 33.11 C63.00,40.43 63.17,41.15 64.75,40.50 C72.20,37.48 78.11,37.72 82.59,41.25 C86.94,44.67 88.00,48.72 88.00,61.97 L 88.00 74.00 L 83.00 74.00 L 78.00 74.00 L 78.00 63.55 C78.00,57.69 77.49,51.96 76.83,50.52 C74.62,45.68 67.11,45.95 64.52,50.96 C63.46,53.02 63.00,56.92 63.00,63.95 L 63.00 74.00 L 58.00 74.00 L 53.00 74.00 L 53.00 49.50 ZM 97.00 56.50 L 97.00 39.00 L 102.50 39.00 L 108.00 39.00 L 108.00 56.50 L 108.00 74.00 L 102.50 74.00 L 97.00 74.00 L 97.00 56.50 ZM 118.00 56.50 L 118.00 39.00 L 121.45 39.00 C123.59,39.00 125.24,39.61 125.81,40.62 C126.63,42.10 126.94,42.09 129.36,40.50 C132.71,38.31 141.73,37.99 145.38,39.94 C150.84,42.85 152.29,47.01 152.80,61.14 L 153.27 74.00 L 147.63 74.00 L 142.00 74.00 L 142.00 62.72 C142.00,54.13 141.63,50.92 140.44,49.22 C138.31,46.17 133.63,46.28 130.45,49.45 C128.14,51.76 128.00,52.56 128.00,62.95 L 128.00 74.00 L 123.00 74.00 L 118.00 74.00 L 118.00 56.50 ZM 162.00 49.50 L 162.00 25.00 L 167.00 25.00 L 172.00 25.00 L 172.00 38.03 C172.00,52.31 172.43,53.29 177.87,51.38 C179.79,50.70 181.09,48.98 182.68,44.98 L 184.86 39.50 L 190.32 39.20 L 195.79 38.91 L 193.34 45.64 C192.00,49.34 190.08,53.49 189.08,54.87 C187.27,57.35 187.28,57.43 190.96,63.44 C197.95,74.86 197.92,74.00 191.25,74.00 L 185.43 74.00 L 181.69 67.50 C178.41,61.79 177.59,61.00 174.97,61.00 L 172.00 61.00 L 172.00 67.50 L 172.00 74.00 L 167.00 74.00 L 162.00 74.00 L 162.00 49.50 ZM 205.00 51.00 L 205.00 28.00 L 218.55 28.00 C233.77,28.00 236.87,28.91 239.59,34.18 C241.66,38.18 240.93,44.38 238.03,47.47 L 235.89 49.74 L 238.95 52.79 C241.53,55.37 242.00,56.61 242.00,60.79 C242.00,64.34 241.39,66.50 239.83,68.49 C236.26,73.03 232.42,74.00 218.03,74.00 L 205.00 74.00 L 205.00 51.00 ZM 228.78 64.44 C231.23,62.73 231.79,58.19 229.80,56.20 C229.10,55.50 225.76,55.00 221.80,55.00 L 215.00 55.00 L 215.00 59.83 C215.00,62.49 215.30,64.97 215.67,65.33 C216.98,66.65 226.56,66.00 228.78,64.44 ZM 228.44 45.05 C230.67,43.20 230.44,38.30 228.07,37.04 C227.00,36.47 223.63,36.00 220.57,36.00 L 215.00 36.00 L 215.00 40.83 C215.00,43.49 215.34,46.01 215.75,46.43 C216.89,47.59 226.66,46.52 228.44,45.05 ZM 250.00 56.50 L 250.00 39.00 L 255.00 39.00 L 260.00 39.00 L 260.00 56.50 L 260.00 74.00 L 255.00 74.00 L 250.00 74.00 L 250.00 56.50 ZM 268.01 70.25 C268.03,66.99 269.08,65.31 275.98,57.50 L 283.93 48.50 L 276.22 48.00 L 268.50 47.50 L 268.19 43.25 L 267.89 39.00 L 282.94 39.00 L 298.00 39.00 L 298.00 42.56 C298.00,45.60 296.81,47.48 290.00,55.18 C285.60,60.16 282.00,64.63 282.00,65.12 C282.00,65.60 285.60,66.00 290.00,66.00 L 298.00 66.00 L 298.00 70.00 L 298.00 74.00 L 283.00 74.00 L 268.00 74.00 L 268.01 70.25 Z" fill="rgb(251,251,251)"/>
</g>
</svg>